PathFileType	4	(X/Y/Z)	C:/Users/opensim2020/Desktop/walking_exp_matlab/subject02_walking10_straight_03.trc																																																																																																																															
DataRate	CameraRate	NumFrames	NumMarkers	Units	OrigDataRate	OrigDataStartFrame	OrigNumFrames																																																																																																																											
100	100	7	43	mm	100	2392	270																																																																																																																											
Frame#	Time	LFHD			RFHD			LBHD			RBHD			C7			T10			CLAV			STRN			RBAK			LSHO			LUPA			LELB			LFRM			LWRA			LWRB			LFIN			RSHO			RUPA			RELB			RFRM			RWRA			RWRB			RFIN			LASI			RASI			LPSI			RPSI			LTHI			LKNE			LTIB			LANK			LHEE			LTOE			RTHI			RKNE			RTIB			RANK			RHEE			RTOE			*39			*40			*41			*42		
		X1	Y1	Z1	X2	Y2	Z2	X3	Y3	Z3	X4	Y4	Z4	X5	Y5	Z5	X6	Y6	Z6	X7	Y7	Z7	X8	Y8	Z8	X9	Y9	Z9	X10	Y10	Z10	X11	Y11	Z11	X12	Y12	Z12	X13	Y13	Z13	X14	Y14	Z14	X15	Y15	Z15	X16	Y16	Z16	X17	Y17	Z17	X18	Y18	Z18	X19	Y19	Z19	X20	Y20	Z20	X21	Y21	Z21	X22	Y22	Z22	X23	Y23	Z23	X24	Y24	Z24	X25	Y25	Z25	X26	Y26	Z26	X27	Y27	Z27	X28	Y28	Z28	X29	Y29	Z29	X30	Y30	Z30	X31	Y31	Z31	X32	Y32	Z32	X33	Y33	Z33	X34	Y34	Z34	X35	Y35	Z35	X36	Y36	Z36	X37	Y37	Z37	X38	Y38	Z38	X39	Y39	Z39	X40	Y40	Z40	X41	Y41	Z41	X42	Y42	Z42	X43	Y43	Z43
																																																																																																																																		
203	2.02	579.98138	1746.60095	1497.19165	591.14618	1717.01099	1637.96069	444.55322	1681.17249	1495.3302	442.34503	1650.71069	1635.27991	388.14532	1536.07813	1562.20471	329.43594	1259.80164	1570.09473	524.35217	1463.22388	1536.14099	571.90082	1290.73267	1537.44312	331.8974	1362.33789	1630.79919	445.12079	1513.45862	1374.63379	416.91983	1314.5863	1292.83838	401.85544	1174.18677	1283.8407	401.57324	1042.9696	1268.07068	450.73651	912.3631	1293.77258	404.01797	919.18567	1261.50354	417.27081	851.9754	1260.84119	483.97308	1494.66199	1738.31653	468.69141	1302.41003	1825.80261	486.77576	1156.97351	1840.44019	522.48743	1043.0863	1859.01697	576.77765	919.70801	1839.63818	531.39868	913.85858	1873.57898	573.38605	854.76746	1877.44702	544.54706	1000.58154	1409.60681	573.44287	987.27728	1663.59851	346.05814	1037.87244	1512.67017	353.13516	1039.74316	1627.81726	520.62695	692.034	1337.6814	531.65649	502.39111	1349.00146	413.60556	356.84402	1367.14282	335.36664	148.79376	1397.3811	311.37256	127.27236	1458.46301	448.32324	62.11292	1336.39111	510.05261	677.96393	1726.81836	511.67239	468.99332	1681.07263	472.05008	283.78458	1684.27148	453.00446	92.26981	1640.32629	416.26691	40.0946	1585.80774	605.53583	39.28656	1653.01196	491.134	1810.79883	1600.21265	2845.24243	1034.1593	-3360.30493	NaN	NaN	NaN	NaN	NaN	NaN
204	2.03	587.80396	1746.5354	1496.51648	599.84827	1717.39526	1637.30774	452.19485	1681.55835	1495.8219	450.83472	1651.53247	1635.85938	395.83917	1536.755	1563.41357	336.54187	1260.56665	1571.61462	531.83093	1463.56396	1536.66711	579.21411	1291.09082	1538.53442	339.89758	1363.25671	1632.98523	451.34262	1513.30847	1375.41553	420.02292	1315.05652	1293.9823	404.63846	1174.51294	1285.19971	402.53543	1043.32202	1269.08801	450.44138	912.24255	1294.88733	403.75821	919.57611	1262.72913	416.55377	852.31769	1261.84131	492.88742	1495.7666	1738.94739	479.85767	1303.74463	1827.32239	499.39859	1158.55884	1842.39502	536.41431	1044.91089	1860.37158	591.71436	922.07056	1840.26721	546.66785	915.57275	1874.73865	589.45386	857.12134	1878.07153	552.17084	1001.70013	1411.67273	579.60773	987.14777	1665.43921	353.07968	1039.06165	1512.96265	359.50092	1040.05432	1628.03931	529.81696	693.57086	1337.89978	542.9859	503.08679	1350.08008	430.42944	352.32782	1368.43665	361.46716	140.79596	1398.14368	338.18738	118.46182	1459.31836	477.56921	59.6267	1336.76355	514.54602	678.06403	1727.20984	513.82465	468.93491	1681.40479	472.69705	283.89383	1684.17944	453.15027	92.4507	1640.17163	416.72647	39.64155	1585.68982	605.71832	39.54454	1653.29626	499.8096	1811.27539	1599.83813	2845.18335	1034.3075	-3360.23755	NaN	NaN	NaN	NaN	NaN	NaN
205	2.04	595.60474	1746.34985	1495.77917	608.48145	1717.62073	1636.57971	459.7869	1681.66016	1495.94983	459.43729	1652.35632	1636.59509	403.57132	1537.26172	1564.63123	343.6312	1260.92114	1572.72363	539.29565	1463.8252	1537.14587	586.49396	1291.35168	1539.60071	346.3259	1364.16199	1634.98767	457.81705	1513.23816	1376.44983	423.70657	1315.17529	1295.20972	407.23239	1174.92261	1286.61865	404.49091	1043.83813	1270.69531	450.21411	912.17694	1295.802	403.32721	919.86273	1263.54639	415.66153	852.7182	1262.62952	501.75934	1496.74353	1739.51917	490.80542	1304.80054	1828.60034	511.83209	1159.90308	1843.98633	550.39172	1046.72046	1861.69006	606.5202	924.27881	1840.6261	562.22864	917.57611	1875.96082	605.55945	859.42926	1878.53284	559.86224	1002.49347	1413.60449	585.75452	986.82953	1667.19568	359.99304	1039.97083	1513.0498	365.81476	1040.35034	1628.16663	538.68335	694.99152	1338.24329	553.82245	503.52722	1351.32288	447.24719	347.69089	1369.64185	387.76157	132.97595	1398.5675	366.08713	109.27166	1459.87061	507.25415	57.07758	1337.01245	518.59021	677.83197	1727.33411	515.91174	468.68216	1681.47131	473.51331	284.00488	1684.11536	453.26239	92.56282	1640.03052	416.4725	40.21641	1585.28882	605.63403	39.36563	1653.23096	508.5705	1811.75354	1599.4613	2845.19824	1034.06335	-3360.40332	NaN	NaN	NaN	NaN	NaN	NaN
206	2.05	603.41974	1746.03735	1494.93506	617.05817	1717.77112	1635.73999	467.39432	1681.93762	1496.37415	467.61508	1652.95007	1636.62988	411.27652	1537.64111	1565.70325	350.71072	1261.62732	1573.97681	546.72076	1463.98059	1537.56787	593.78314	1291.52185	1540.58118	354.45236	1364.99805	1636.95459	464.04037	1512.9458	1377.28857	427.5495	1315.23206	1296.40076	410.04968	1175.17627	1287.92249	404.97443	1044.11987	1271.7937	450.04053	912.04889	1296.35034	402.99719	920.19727	1265.03577	414.99948	853.0899	1263.13745	510.46231	1497.52112	1739.71191	501.77744	1305.91223	1829.93726	524.14502	1160.94995	1845.19873	564.13214	1048.21631	1862.48218	621.3681	926.55188	1840.87573	577.62933	919.38489	1876.91956	621.63495	861.65405	1878.80994	567.51849	1003.14783	1415.32214	591.94489	986.39868	1668.76929	366.86377	1040.81494	1513.03723	372.14832	1040.58533	1628.18689	547.3891	696.20691	1338.67688	564.09375	503.78424	1352.73694	463.98349	342.91663	1370.64685	414.2851	125.15118	1398.71045	393.96942	100.6973	1460.00671	537.56488	55.4073	1337.23999	521.83478	677.5105	1727.37695	518.20752	468.39969	1681.52832	474.68106	284.1626	1684.08008	453.47498	92.72678	1639.90527	416.51111	40.39902	1585.09277	605.72229	39.47618	1653.41968	517.30438	1812.15613	1598.96667	2845.19824	1034.06372	-3360.40332	NaN	NaN	NaN	NaN	NaN	NaN
207	2.06	610.98999	1745.60303	1493.90405	625.56934	1717.81311	1634.71484	474.84381	1681.96179	1496.55786	476.01706	1653.49805	1636.90613	418.66995	1537.75195	1566.39746	357.71301	1262.07178	1574.97473	554.11603	1464.04712	1537.92932	601.05634	1291.54102	1541.48401	362.46136	1365.35547	1638.36743	470.25394	1512.63965	1378.05957	430.67984	1315.53784	1297.43567	412.79361	1175.4856	1289.31885	406.11658	1044.48157	1272.89551	450.04953	911.97382	1296.60632	402.87589	920.6759	1265.70874	414.3703	853.5498	1263.40857	519.10431	1498.4375	1740.34705	512.75781	1307.06384	1831.30396	536.52417	1162.14941	1846.51636	578.07184	1049.98706	1863.57922	635.97607	928.64587	1840.85645	593.06378	921.17224	1877.69495	637.72101	863.9209	1878.92786	575.15717	1003.56989	1416.78699	598.14337	985.91937	1670.1626	373.68698	1041.45349	1512.95679	378.52994	1040.85376	1628.18335	555.87225	697.19696	1338.99585	574.00616	503.7746	1354.20129	480.78876	338.09195	1371.54175	441.25415	118.01166	1398.54907	422.15747	92.67065	1460.23804	567.65649	53.77642	1337.01257	525.75568	677.13397	1727.04382	520.72748	468.14493	1681.56458	476.03104	284.2038	1684.01563	453.71484	92.88216	1639.81067	416.60919	40.44802	1584.98413	605.65265	39.30611	1653.38611	525.85779	1812.33459	1598.20886	2845.89087	1034.24463	-3357.42847	NaN	NaN	NaN	NaN	NaN	NaN
208	2.07	618.63116	1745.08118	1492.82288	634.0816	1717.79944	1633.64111	482.25955	1681.72351	1496.45166	484.52036	1653.9718	1637.34546	426.26907	1538.01941	1567.43591	364.77954	1262.2771	1575.74597	561.47791	1463.97656	1538.20142	608.29883	1291.50281	1542.36206	370.2135	1365.51318	1639.46387	476.31155	1512.14612	1378.63977	434.142	1315.3988	1298.50232	415.58038	1175.63733	1290.56055	407.10907	1044.85535	1273.91614	450.22504	911.88409	1296.64697	402.68304	921.07098	1266.45349	413.65762	854.1767	1263.29224	527.6001	1498.93225	1740.60852	523.46454	1307.93994	1832.31958	548.8764	1163.17139	1847.53748	591.8634	1051.521	1864.23608	650.89642	930.92932	1840.83301	608.57483	922.97003	1878.38721	653.75165	866.11011	1878.8988	582.6272	1003.7793	1417.98059	604.39954	985.30804	1671.39124	380.46686	1041.7749	1512.70923	384.9726	1040.89368	1628.04663	564.16284	698.01965	1339.45642	583.65668	503.56436	1355.72144	497.68857	333.17999	1372.21667	468.33521	111.39466	1398.04211	450.28333	85.14393	1459.396	597.56177	52.57362	1336.58826	530.03473	677.1441	1727.26062	523.37109	467.95932	1681.69702	477.5755	284.22534	1683.88611	454.15512	93.20635	1639.8927	416.50311	40.7079	1584.77856	605.61401	39.1736	1653.37988	534.5672	1812.63794	1597.74512	2845.08057	1034.17017	-3360.31665	NaN	NaN	NaN	NaN	NaN	NaN
209	2.08	626.18579	1744.47046	1491.65625	642.48792	1717.66614	1632.38257	489.70743	1681.62244	1496.59473	492.72964	1654.43665	1637.53809	433.72321	1537.91675	1568.00061	371.79019	1262.43262	1576.4032	568.81403	1463.82715	1538.45386	615.53308	1291.32336	1543.12305	378.19934	1365.83289	1640.78772	482.51871	1511.65588	1379.245	439.10983	1315.15198	1299.90381	418.52789	1175.80701	1291.77002	408.32947	1045.08765	1274.59888	450.49292	911.78656	1296.45996	402.54681	921.49866	1267.21033	412.82309	854.41071	1263.43677	535.96008	1499.35657	1740.65234	533.90009	1308.5979	1832.94312	561.09497	1164.1748	1848.56628	605.49536	1052.86731	1864.50037	665.39014	933.01691	1840.54272	623.76563	924.56555	1878.6814	669.73151	868.31067	1878.7168	590.13171	1003.87317	1418.81836	610.77606	984.68799	1672.4021	387.14438	1042.21289	1512.64697	391.44696	1040.85718	1627.92419	572.44556	698.75604	1340.18115	593.14996	503.05161	1357.12708	514.78186	328.48715	1372.85376	495.59589	105.59356	1397.23596	478.67316	78.67903	1458.66589	627.25171	51.73837	1335.82239	534.21899	676.85626	1727.17065	526.15552	467.59973	1681.49109	479.10449	284.36105	1683.95007	454.40384	93.36312	1639.73071	416.6077	40.81377	1584.53613	605.69702	39.21636	1653.52063	542.85315	1812.53345	1596.62048	2845.22314	1034.05884	-3360.3186	NaN	NaN	NaN	NaN	NaN	NaN
